HIERARCHY
ROOT Hips
{
	OFFSET 0.00000 0.00000 0.00000
	CHANNELS 6 Xposition Yposition Zposition Zrotation Yrotation Xrotation 
	JOINT LHipJoint
	{
		OFFSET 0 0 0
		CHANNELS 3 Zrotation Yrotation Xrotation
		JOINT LeftHip
		{
			OFFSET 1.76014 -1.80163 0.38499
			CHANNELS 3 Zrotation Yrotation Xrotation
			JOINT LeftKnee
			{
				OFFSET 2.46817 -6.78126 0.00000
				CHANNELS 3 Zrotation Yrotation Xrotation
				JOINT LeftAnkle
				{
					OFFSET 2.79348 -7.67503 0.00000
					CHANNELS 3 Zrotation Yrotation Xrotation
					JOINT LeftToe
					{
						OFFSET 0.09421 -0.25885 1.91403
						CHANNELS 3 Zrotation Yrotation Xrotation
						End Site
						{
							OFFSET 0.00000 -0.00000 0.97975
						}
					}
				}
			}
		}
	}
	JOINT RHipJoint
	{
		OFFSET 0 0 0
		CHANNELS 3 Zrotation Yrotation Xrotation
		JOINT RightHip
		{
			OFFSET -1.77926 -1.80163 0.38499
			CHANNELS 3 Zrotation Yrotation Xrotation
			JOINT RightKnee
			{
				OFFSET -2.51996 -6.92353 0.00000
				CHANNELS 3 Zrotation Yrotation Xrotation
				JOINT RightAnkle
				{
					OFFSET -2.76109 -7.58603 0.00000
					CHANNELS 3 Zrotation Yrotation Xrotation
					JOINT RightToe
					{
						OFFSET -0.08067 -0.22163 1.86812
						CHANNELS 3 Zrotation Yrotation Xrotation
						End Site
						{
							OFFSET -0.00000 -0.00000 0.95558
						}
					}
				}
			}
		}
	}
	JOINT lowerback
	{
		OFFSET 0 0 0
		CHANNELS 3 Zrotation Yrotation Xrotation
		JOINT Chest
		{
			OFFSET 0.05537 1.92033 -0.03713
			CHANNELS 3 Zrotation Yrotation Xrotation
			JOINT Chest2
			{
				OFFSET 0.04452 1.90073 0.10860
				CHANNELS 3 Zrotation Yrotation Xrotation
				JOINT lowerneck
				{
					OFFSET 0 0 0
					CHANNELS 3 Zrotation Yrotation Xrotation
					JOINT Neck
					{
						OFFSET 0.00903 1.74649 0.02074
						CHANNELS 3 Zrotation Yrotation Xrotation
						JOINT Head
						{
							OFFSET -0.08608 1.67844 -0.12081
							CHANNELS 3 Zrotation Yrotation Xrotation
							End Site
							{
								OFFSET -0.03521 1.83380 -0.05059
							}
						}
					}
				}
				JOINT LeftCollar
				{
					OFFSET 0 0 0
					CHANNELS 3 Zrotation Yrotation Xrotation
					JOINT LeftShoulder
					{
						OFFSET 3.28197 0.84325 -0.19106
CHANNELS 3 Zrotation Xrotation Yrotation
						JOINT LeftElbow
						{
OFFSET 0 -5.243180 -0.000000
CHANNELS 3 Zrotation Xrotation Yrotation
							JOINT LeftWrist
							{
OFFSET 0 -2.989990 0.000000
CHANNELS 3 Zrotation Xrotation Yrotation
								JOINT lhand
								{
									OFFSET 0 0 0
CHANNELS 3 Zrotation Xrotation Yrotation
									JOINT LFingers
									{
OFFSET 0 -0.726740 0.000000
CHANNELS 3 Zrotation Xrotation Yrotation
										End Site
										{
OFFSET 0 -0.585920 0.000000
										}
									}
								}
								JOINT LThumb
								{
OFFSET 0 0.000000 0.000000
CHANNELS 3 Zrotation Xrotation Yrotation
									End Site
									{
OFFSET 0 -0.594870 0.594870
									}
								}
							}
						}
					}
				}
				JOINT RightCollar
				{
					OFFSET 0 0 0
					CHANNELS 3 Zrotation Yrotation Xrotation
					JOINT RightShoulder
					{
						OFFSET -3.30963 0.78377 0.14264
CHANNELS 3 Zrotation Xrotation Yrotation
						JOINT RightElbow
						{
OFFSET 0 -5.370450 0.000000
CHANNELS 3 Zrotation Xrotation Yrotation
							JOINT RightWrist
							{
OFFSET 0 -2.927920 0.000000
CHANNELS 3 Zrotation Xrotation Yrotation
								JOINT rhand
								{
									OFFSET 0 0 0
CHANNELS 3 Zrotation Xrotation Yrotation
									JOINT RFingers
									{
OFFSET 0 -0.784500 0.000000
CHANNELS 3 Zrotation Xrotation Yrotation
										End Site
										{
OFFSET 0 -0.632480 0.000000
										}
									}
								}
								JOINT RThumb
								{
OFFSET 0 0.000000 0.000000
CHANNELS 3 Zrotation Xrotation Yrotation
									End Site
									{
OFFSET 0 -0.642140 0.642140
									}
								}
							}
						}
					}
				}
			}
		}
	}
}
MOTION
Frames: 10
Frame Time: 0.008333333333333333
0.790289 16.323482 1.770023 6.061847 -6.588323 -23.568294 0.000000 0.000000 0.000000 -22.047086 13.590518 8.440536 5.940746 14.370646 44.743566 2.082469 1.473828 -27.851679 2.311049 -9.485914 -27.327376 0.000000 0.000000 0.000000 6.569990 -2.307623 2.940139 -8.018162 -16.132587 52.628171 -2.219130 5.540497 -26.995336 -2.805875 10.373740 -30.195831 -0.132589 -0.953578 -5.663918 3.328434 -1.658643 8.153974 3.426203 -1.012407 12.099914 7.071260 1.582987 12.298361 -5.508713 2.719503 -8.612152 -3.049352 1.447929 -4.406658 0.000000 0.000000 0.000000 99.647231 -30.784371 51.889747 132.828090 -51.788972 96.066530 -25.099871 -39.136624 -21.767628 0.000000 0.000000 0.000000 -7.125000 0.000000 0.000000 -48.435799 45.827725 1.308096 0.000000 0.000000 0.000000 -102.117130 -43.884156 -77.800988 -100.390782 -59.588037 -68.986196 30.790094 -28.058708 -0.655239 0.000000 0.000000 0.000000 7.125000 0.000000 0.000000 39.837636 26.149534 24.472214
0.761187 16.349252 1.760292 6.198368 -5.222523 -23.641815 0.000000 0.000000 0.000000 -21.904129 13.524171 8.680062 5.832545 14.264091 44.305912 2.065292 0.451858 -27.370769 2.292543 -9.450611 -27.215308 0.000000 0.000000 0.000000 6.357629 -2.885635 3.535109 -7.881227 -16.031188 52.133689 -2.221143 4.899697 -27.094965 -2.783625 10.336019 -30.072123 0.030554 -0.894512 -5.546350 3.266489 -1.591307 8.331485 3.280944 -0.963085 12.219713 7.214570 1.311119 12.290014 -4.299657 2.513202 -8.318595 -2.676720 1.268800 -4.344493 0.000000 0.000000 0.000000 93.396247 -28.397251 48.853106 135.684731 -50.428470 98.290300 -26.513115 -40.302026 -22.236262 0.000000 0.000000 0.000000 -7.125000 0.000000 0.000000 -49.750106 45.964257 1.591098 0.000000 0.000000 0.000000 -100.520593 -46.303963 -77.676819 -101.762471 -59.470715 -70.168438 27.912163 -36.174546 -0.983867 0.000000 0.000000 0.000000 7.125000 0.000000 0.000000 38.367469 26.433329 22.545521
0.706195 16.346119 1.747256 6.024576 -3.432703 -23.593834 0.000000 0.000000 0.000000 -21.294090 13.079697 8.421558 5.929617 14.359772 44.698550 2.142370 -2.254804 -27.094837 1.683855 -8.173870 -23.243409 0.000000 0.000000 0.000000 6.940001 -3.150552 4.084387 -7.873929 -16.025786 52.107389 -2.288712 3.630738 -27.738659 -2.566571 9.957048 -28.838578 0.287507 -0.734823 -5.797736 2.984186 -1.384065 8.642144 2.866244 -0.826392 12.704930 5.965238 1.218062 11.548419 -3.329681 2.244641 -7.176038 -2.133235 1.126568 -3.914840 0.000000 0.000000 0.000000 89.638155 -27.920602 46.292227 136.769675 -49.871395 99.123260 -31.700733 -43.380008 -23.133660 0.000000 0.000000 0.000000 -7.125000 0.000000 0.000000 -53.796094 45.799202 1.523992 0.000000 0.000000 0.000000 -99.345099 -46.542213 -75.679125 -102.380450 -59.412825 -70.700644 30.273139 -41.731797 -1.969712 0.000000 0.000000 0.000000 7.125000 0.000000 0.000000 39.133653 25.089246 25.119639
0.653564 16.338675 1.758496 6.186727 -1.772385 -23.837767 0.000000 0.000000 0.000000 -21.161074 12.832089 8.818398 5.898080 14.328854 44.571348 2.128649 -3.240380 -26.786701 1.749779 -8.324183 -23.703114 0.000000 0.000000 0.000000 7.056069 -3.393539 4.934522 -7.868185 -16.021423 52.086548 -2.363965 3.171222 -28.302995 -1.945860 8.752368 -25.023710 0.427037 -0.346740 -5.721655 2.528266 -0.814251 8.706996 2.384162 -0.508465 12.686595 5.330833 1.588380 12.231643 -3.567690 2.661161 -6.483295 -2.131371 1.375009 -3.798210 0.000000 0.000000 0.000000 86.773922 -28.831522 44.321271 138.075068 -49.169625 100.116179 -36.119131 -47.612379 -24.777130 0.000000 0.000000 0.000000 -7.125000 0.000000 0.000000 -57.761222 46.247799 2.725013 0.000000 0.000000 0.000000 -98.209307 -45.473615 -71.878705 -103.917091 -59.255160 -72.022392 34.607922 -43.205572 -2.387544 0.000000 0.000000 0.000000 7.125000 0.000000 0.000000 40.741260 23.587555 29.255850
0.600791 16.353279 1.780953 6.740827 -0.576436 -23.728724 0.000000 0.000000 0.000000 -21.529871 12.700001 8.976925 5.789198 14.220917 44.129600 2.084563 -4.344042 -26.295466 1.627086 -8.041327 -22.839986 0.000000 0.000000 0.000000 6.603712 -3.616210 5.207094 -7.860604 -16.015717 52.058866 -2.341657 0.925958 -28.720527 -2.788282 10.339969 -30.089042 0.266117 0.039576 -5.978224 2.112032 -0.219404 8.647652 2.119475 -0.210488 12.746172 5.528212 2.274744 12.727847 -4.371643 3.580396 -5.507985 -2.461627 1.881556 -3.518724 0.000000 0.000000 0.000000 82.242410 -28.810329 42.010073 141.360717 -47.241952 102.566300 -35.160479 -48.584432 -25.194736 0.000000 0.000000 0.000000 -7.125000 0.000000 0.000000 -57.607538 46.711239 3.680843 0.000000 0.000000 0.000000 -98.126708 -45.031931 -68.847671 -108.268754 -58.699972 -75.752073 37.607395 -40.689155 -1.108022 0.000000 0.000000 0.000000 7.125000 0.000000 0.000000 42.179464 23.730085 31.162045
0.537917 16.373616 1.802435 6.476792 -0.287884 -23.455927 0.000000 0.000000 0.000000 -20.800218 12.735239 8.840147 5.741638 14.173236 43.935837 2.049272 -4.821013 -25.988557 1.751240 -8.327392 -23.713080 0.000000 0.000000 0.000000 7.389554 -3.570976 5.312428 -7.792091 -15.964193 51.810466 -2.350204 -0.319420 -29.155190 -2.989524 10.678079 -31.201696 1.051205 0.272175 -5.954093 2.045555 0.014195 8.559159 1.643197 -0.017862 12.619070 5.579105 2.961261 13.359041 -5.546969 4.445033 -5.362549 -2.893322 2.380028 -3.503073 0.000000 0.000000 0.000000 74.561924 -27.067249 39.515760 146.108527 -44.004087 105.962360 -33.866897 -52.608629 -24.990480 0.000000 0.000000 0.000000 -7.125000 0.000000 0.000000 -56.674539 46.785581 3.709395 0.000000 0.000000 0.000000 -98.624421 -45.664647 -66.141172 -114.289938 -57.648771 -80.869673 36.557869 -32.307837 -1.965902 0.000000 0.000000 0.000000 7.125000 0.000000 0.000000 41.548314 23.326326 30.827478
0.471740 16.386648 1.821547 6.777577 0.465841 -23.150280 0.000000 0.000000 0.000000 -21.162637 12.165049 8.882328 5.652210 14.082692 43.569521 2.024030 -5.077560 -25.785657 1.699226 -8.209302 -23.351581 0.000000 0.000000 0.000000 7.121080 -3.981111 5.181410 -7.770815 -15.948074 51.732914 -2.382512 -0.126336 -29.292849 -2.771757 10.315857 -30.005858 0.602714 0.323615 -6.111694 1.662930 0.178450 8.662104 1.508826 0.041225 12.830433 6.369915 2.933885 13.772915 -6.866747 4.461004 -5.316235 -3.437424 2.449321 -3.507775 0.000000 0.000000 0.000000 66.192393 -25.318527 36.414783 150.441299 -40.511646 108.878036 -35.737182 -59.760195 -26.403509 0.000000 0.000000 0.000000 -7.125000 0.000000 0.000000 -59.055952 47.462659 5.491530 0.000000 0.000000 0.000000 -98.852064 -46.199722 -64.295020 -120.679239 -56.125669 -86.223373 36.698610 -28.317584 -2.651655 0.000000 0.000000 0.000000 7.125000 0.000000 0.000000 41.345445 22.641826 31.567015
0.370524 16.375837 1.845964 6.009206 1.390227 -23.325569 0.000000 0.000000 0.000000 -19.934097 11.484129 9.070959 5.792345 14.224045 44.142486 2.063501 -5.480973 -25.995364 1.870635 -8.591162 -24.524595 0.000000 0.000000 0.000000 8.192824 -4.888805 5.696176 -7.715400 -15.905900 51.531065 -2.429822 -0.197436 -29.607436 -2.419556 9.690127 -27.978972 0.692144 0.374448 -6.253396 1.030212 0.306543 8.844414 0.793826 0.150567 13.131281 6.316060 2.432178 13.739953 -7.269425 3.777312 -4.476022 -3.497893 2.134857 -3.289187 0.000000 0.000000 0.000000 64.625322 -25.114076 30.527033 151.831989 -39.270433 109.770136 -43.729650 -65.370147 -28.481182 0.000000 0.000000 0.000000 -7.125000 0.000000 0.000000 -65.281421 47.497075 7.003740 0.000000 0.000000 0.000000 -98.569987 -46.386214 -63.382691 -123.782036 -55.214820 -88.785999 39.296278 -32.326773 -2.436032 0.000000 0.000000 0.000000 7.125000 0.000000 0.000000 42.136435 21.776863 34.242789
0.229011 16.346298 1.875514 4.713381 2.202975 -23.646075 0.000000 0.000000 0.000000 -17.791849 10.747793 9.218319 6.011452 14.439418 45.027748 2.128360 -6.575182 -26.305573 1.937574 -8.734572 -24.968705 0.000000 0.000000 0.000000 10.392398 -5.540266 6.268628 -7.711557 -15.902931 51.517044 -2.417175 -1.128836 -29.847761 -2.096689 9.057569 -25.980620 0.884770 0.688633 -6.300660 0.543291 0.770572 8.939002 0.236746 0.423966 13.278186 3.946083 1.815723 13.611290 -7.530050 2.581605 -3.189131 -3.103885 1.587041 -2.994940 0.000000 0.000000 0.000000 71.707328 -28.094642 27.821603 151.098654 -39.932660 109.302618 -45.510357 -59.702659 -28.861710 0.000000 0.000000 0.000000 -7.125000 0.000000 0.000000 -66.483771 47.446293 7.202489 0.000000 0.000000 0.000000 -99.663885 -45.516839 -63.121365 -124.069876 -55.124062 -89.022292 39.582497 -39.002922 -2.299428 0.000000 0.000000 0.000000 7.125000 0.000000 0.000000 42.252520 21.773468 34.454969
0.105020 16.352589 1.940702 3.658517 2.476452 -23.874502 0.000000 0.000000 0.000000 -16.477185 9.744143 9.953067 6.003162 14.431351 44.994220 2.157473 -6.061718 -26.541505 2.189081 -9.249045 -26.577775 0.000000 0.000000 0.000000 12.013271 -6.278388 6.885392 -7.588753 -15.808326 51.067572 -2.465786 -1.438867 -30.252916 -1.995703 8.857146 -25.349546 0.782481 1.137948 -6.493481 0.191314 1.440268 8.617573 0.026379 0.756748 13.031551 1.894698 1.264686 13.729223 -7.418767 1.636560 -0.767629 -2.913537 1.093904 -2.611996 0.000000 0.000000 0.000000 78.541207 -31.963464 31.660588 149.079112 -41.669430 107.982623 -39.661967 -50.634508 -26.982838 0.000000 0.000000 0.000000 -7.125000 0.000000 0.000000 -61.743158 47.185114 5.410366 0.000000 0.000000 0.000000 -100.112295 -44.642338 -61.788076 -124.706592 -54.919206 -89.544000 36.861521 -39.991230 -2.958199 0.000000 0.000000 0.000000 7.125000 0.000000 0.000000 41.287105 22.297743 32.000155
